#!OML:ASF H:\Dans Jumps\Project 1\Capture day 1\Session 1\subject.ASF
:FULLY-SPECIFIED
:DEGREES
213
root 0.311523 20.6758 -8.23616 7.90338 2.89898 -1.56697
lowerback 10.0375 -0.12899 -1.65356
upperback 6.44539 -0.290937 1.90738
thorax 1.09565 -0.227728 2.93093
lowerneck -11.221 0.0911671 -1.52277
upperneck 26.9056 0.400175 0.299722
head 10.4437 0.0688381 0.417389
rclavicle -4.87022e-015 8.34896e-015
rhumerus -3.90087 -10.8109 -88.3087
rradius 26.2845
rwrist 30.2434
rhand -22.6517 -25.0465
rfingers 7.12502
rthumb 3.77948 -54.9927
lclavicle -4.87022e-015 8.34896e-015
lhumerus 0.397045 -5.44309 94.6708
lradius 24.835
lwrist 18.6702
lhand -26.8551 -9.54853
lfingers 7.12502
lthumb -0.280161 20.431
rfemur -34.8975 -7.05307 21.2224
rtibia 44.0865
rfoot 9.80611 -3.93681
rtoes 16.7002
lfemur -34.0562 8.00572 -18.5955
ltibia 37.556
lfoot 14.1106 2.03961
ltoes 5.37597
214
root 0.308332 20.6334 -8.10005 7.79016 2.9694 -1.53835
lowerback 9.99831 -0.136935 -1.77345
upperback 6.3841 -0.310099 1.90299
thorax 1.05533 -0.239469 2.99557
lowerneck -11.3279 0.104285 -1.46171
upperneck 27.1504 0.401101 0.324681
head 10.5552 0.0768324 0.417036
rclavicle 8.34896e-015 -6.95746e-015
rhumerus -4.25326 -11.1888 -88.3121
rradius 26.0797
rwrist 30.462
rhand -22.5387 -25.234
rfingers 7.12502
rthumb 3.88853 -55.1783
lclavicle 8.34896e-015 -6.95746e-015
lhumerus 0.331607 -5.29704 94.8222
lradius 24.5329
lwrist 18.2628
lhand -26.5687 -9.33207
lfingers 7.12502
lthumb -0.00354527 20.6477
rfemur -35.3474 -7.12978 21.2656
rtibia 43.6286
rfoot 8.68814 -3.5458
rtoes 15.3976
lfemur -34.4179 8.25075 -18.7939
ltibia 36.3425
lfoot 13.4563 1.49142
ltoes 4.13707
215
root 0.3049 20.5764 -7.95969 7.63116 3.04956 -1.52367
lowerback 9.92703 -0.150011 -1.87923
upperback 6.33295 -0.334627 1.8974
thorax 1.04343 -0.253878 3.0512
lowerneck -11.3832 0.118014 -1.41236
upperneck 27.3802 0.394962 0.382992
head 10.6514 0.0845469 0.429644
rclavicle 8.79622e-015 3.37934e-015
rhumerus -4.62587 -11.6376 -88.3117
rradius 25.8732
rwrist 30.6716
rhand -22.4544 -25.3928
rfingers 7.12502
rthumb 3.96999 -55.3355
lclavicle 8.79622e-015 3.37934e-015
lhumerus 0.23167 -5.13608 94.9557
lradius 24.2586
lwrist 18.012
lhand -26.3098 -9.18074
lfingers 7.12502
lthumb 0.246529 20.7989
rfemur -35.6792 -7.17963 21.2934
rtibia 43.142
rfoot 7.4718 -3.13387
rtoes 13.9617
lfemur -34.6945 8.43118 -18.9344
ltibia 35.2016
lfoot 12.8123 0.95988
ltoes 2.68835
216
root 0.301357 20.5052 -7.81497 7.42118 3.13979 -1.53156
lowerback 9.82245 -0.170516 -1.96034
upperback 6.29311 -0.366628 1.89058
thorax 1.06185 -0.271815 3.09192
lowerneck -11.385 0.131431 -1.37163
upperneck 27.5983 0.380611 0.471326
head 10.733 0.0913668 0.453425
rclavicle 5.36719e-015 1.54058e-014
rhumerus -5.02022 -12.1471 -88.311
rradius 25.6691
rwrist 30.8854
rhand -22.3987 -25.511
rfingers 7.12502
rthumb 4.02372 -55.4528
lclavicle 5.36719e-015 1.54058e-014
lhumerus 0.105316 -4.95579 95.0654
lradius 24.0043
lwrist 17.9133
lhand -26.0767 -9.09979
lfingers 7.12502
lthumb 0.471646 20.8794
rfemur -35.8819 -7.20217 21.3136
rtibia 42.6239
rfoot 6.19761 -2.7191
rtoes 12.3959
lfemur -34.8775 8.52761 -18.995
ltibia 34.1554
lfoot 12.1507 0.498358
ltoes 1.09242
217
root 0.297878 20.4204 -7.66555 7.1555 3.24005 -1.56203
lowerback 9.67888 -0.19878 -2.01577
upperback 6.26832 -0.406372 1.88367
thorax 1.11762 -0.293606 3.11823
lowerneck -11.3332 0.141283 -1.34111
upperneck 27.8063 0.356232 0.58114
head 10.8004 0.0952929 0.485405
rclavicle -5.06901e-015 -1.88845e-015
rhumerus -5.42345 -12.6945 -88.3062
rradius 25.4601
rwrist 31.1054
rhand -22.358 -25.5985
rfingers 7.12502
rthumb 4.06312 -55.5395
lclavicle -5.06901e-015 -1.88845e-015
lhumerus -0.0291435 -4.76425 95.1485
lradius 23.7564
lwrist 17.9313
lhand -25.882 -9.06434
lfingers 7.12502
lthumb 0.659742 20.9144
rfemur -35.9425 -7.20037 21.3255
rtibia 42.0681
rfoot 4.94579 -2.32487
rtoes 10.751
lfemur -34.9553 8.53079 -18.9683
ltibia 33.2139
lfoot 11.5092 0.14236
ltoes -0.58706
218
root 0.294648 20.3226 -7.51133 6.83133 3.34897 -1.61845
lowerback 9.49244 -0.235023 -2.03924
upperback 6.25753 -0.453677 1.87614
thorax 1.21166 -0.318993 3.12586
lowerneck -11.2415 0.144939 -1.32031
upperneck 28.0255 0.319424 0.708278
head 10.8646 0.0946778 0.523863
rclavicle -3.23025e-015 1.75924e-014
rhumerus -5.83994 -13.2587 -88.2957
rradius 25.2483
rwrist 31.3364
rhand -22.3583 -25.6282
rfingers 7.12502
rthumb 4.06282 -55.5692
lclavicle -3.23025e-015 1.75924e-014
lhumerus -0.170763 -4.5557 95.2026
lradius 23.5096
lwrist 17.9899
lhand -25.7297 -9.04331
lfingers 7.12502
lthumb 0.80677 20.9349
rfemur -35.8521 -7.17919 21.3341
rtibia 41.4681
rfoot 3.83463 -1.98216
rtoes 9.13658
lfemur -34.9178 8.44028 -18.8477
ltibia 32.3782
lfoot 10.9533 -0.0713184
ltoes -2.29179
219
root 0.292055 20.2125 -7.35183 6.43871 3.45546 -1.69782
lowerback 9.26841 -0.274981 -2.03254
upperback 6.26071 -0.503281 1.86628
thorax 1.34067 -0.345297 3.11356
lowerneck -11.108 0.143039 -1.27997
upperneck 28.2626 0.274939 0.815432
head 10.9276 0.0903115 0.550927
rclavicle -3.23025e-015 5.96354e-016
rhumerus -6.26623 -13.8237 -88.2775
rradius 25.0241
rwrist 31.5841
rhand -22.3684 -25.66
rfingers 7.12502
rthumb 4.05305 -55.6012
lclavicle -3.23025e-015 5.96354e-016
lhumerus -0.314136 -4.32943 95.2283
lradius 23.2454
lwrist 18.0067
lhand -25.619 -9.01003
lfingers 7.12502
lthumb 0.91369 20.9678
rfemur -35.5936 -7.14161 21.3377
rtibia 40.8207
rfoot 2.96237 -1.70284
rtoes 7.63155
lfemur -34.7419 8.27173 -18.6405
ltibia 31.6432
lfoot 10.5525 -0.126233
ltoes -4.02028
